/* XPM */
static char * D:\projects\fireRender\fireRender\icons\amd_xpm[] = {
"32 32 2 1",
" 	c None",
".	c #00985B",
"                                ",
"  ............................  ",
"  ............................. ",
"    ..........................  ",
"     .........................  ",
"      ........................  ",
"       .......................  ",
"        ......................  ",
"         .....................  ",
"          ........... ........  ",
"                       .......  ",
"         .            ........  ",
"        ..            ........  ",
"       ...            ........  ",
"      ....            ........  ",
"     .....            ........  ",
"    ......            ........  ",
"   .......            ........  ",
"  ........            ........  ",
"  ........            ........  ",
"  ........            ........  ",
"  ........            ........  ",
"  ...................  .......  ",
"  ..................    ......  ",
"  .................      .....  ",
"  ................        ....  ",
"  ...............          ...  ",
"  ..............            ..  ",
"  .............              .. ",
" .............                  ",
"  ...........                   ",
"                                "};
